<svg xmlns="http://www.w3.org/2000/svg" viewBox="0 0 3690.52 599.33"><defs><style>.cls-1{fill:#c9d439;}</style></defs><title>bpsAsset 8</title><g id="Layer_2" data-name="Layer 2"><g id="Layer_1-2" data-name="Layer 1"><path class="cls-1" d="M3690.52,38C3625,33,3559.43,27.81,3493.77,23.5c-587.34-38.57-1166.63,14-1753.59,14.07C1454.31,37.6,1169.75-1.36,885,0,838.13.27,791.24,0,744.79,3.88,523.54,22.6,308,14.71,87.25,17.07,50.93,17.46,21.76,12.64.48,18c2.62,180.5-2.86,361.31.87,542,282.59-13.39,564.14,25.82,846.83,24.86,207.64-.7,420.81-11.37,624.75-17,201-5.56,402.1-.08,603,7.7,391.17,15.16,788.84,39.4,1176.39,10,86.53-6.57,173.07-13.26,259.48-21,59.63-5.36,119.16-11.75,178.7-18Q3690,292.21,3690.52,38Z"/></g></g></svg>